<mxfile host="Electron" modified="2024-04-02T10:12:30.587Z" agent="Mozilla/5.0 (Windows NT 10.0; Win64; x64) AppleWebKit/537.36 (KHTML, like Gecko) draw.io/23.0.2 Chrome/120.0.6099.109 Electron/28.1.0 Safari/537.36" etag="8ROLHPtJ65ZkbaXn7UQd" version="23.0.2" type="device">
  <diagram name="Страница — 1" id="pmGqpGf3k0LTeaEfwbUP">
    <mxGraphModel dx="1400" dy="839" grid="1" gridSize="10" guides="1" tooltips="1" connect="1" arrows="1" fold="1" page="1" pageScale="1" pageWidth="827" pageHeight="1169" math="0" shadow="0">
      <root>
        <mxCell id="0" />
        <mxCell id="1" parent="0" />
        <mxCell id="2n0Gqxq4nTMnhEadQPVf-10" value="TSPView" style="swimlane;fontStyle=1;align=center;verticalAlign=top;childLayout=stackLayout;horizontal=1;startSize=26;horizontalStack=0;resizeParent=1;resizeParentMax=0;resizeLast=0;collapsible=1;marginBottom=0;whiteSpace=wrap;html=1;rounded=1;fontFamily=Comic Sans MS;fontSize=14;" parent="1" vertex="1">
          <mxGeometry x="20" y="253" width="160" height="34" as="geometry" />
        </mxCell>
        <mxCell id="2n0Gqxq4nTMnhEadQPVf-12" value="" style="line;strokeWidth=1;fillColor=none;align=left;verticalAlign=middle;spacingTop=-1;spacingLeft=3;spacingRight=3;rotatable=0;labelPosition=right;points=[];portConstraint=eastwest;strokeColor=inherit;fontFamily=Comic Sans MS;fontSize=14;" parent="2n0Gqxq4nTMnhEadQPVf-10" vertex="1">
          <mxGeometry y="26" width="160" height="8" as="geometry" />
        </mxCell>
        <mxCell id="2n0Gqxq4nTMnhEadQPVf-14" value="TSPModel&lt;br&gt;" style="swimlane;fontStyle=1;align=center;verticalAlign=top;childLayout=stackLayout;horizontal=1;startSize=26;horizontalStack=0;resizeParent=1;resizeParentMax=0;resizeLast=0;collapsible=1;marginBottom=0;whiteSpace=wrap;html=1;rounded=1;fontFamily=Comic Sans MS;fontSize=14;" parent="1" vertex="1">
          <mxGeometry x="220.5" y="421" width="210" height="70" as="geometry" />
        </mxCell>
        <mxCell id="hqt6-l8Lm5E7JuM1MTYz-5" value="+ Graph: IGraph" style="text;strokeColor=none;fillColor=none;align=left;verticalAlign=top;spacingLeft=4;spacingRight=4;overflow=hidden;rotatable=0;points=[[0,0.5],[1,0.5]];portConstraint=eastwest;whiteSpace=wrap;html=1;fontFamily=Comic Sans MS;fontSize=14;" vertex="1" parent="2n0Gqxq4nTMnhEadQPVf-14">
          <mxGeometry y="26" width="210" height="24" as="geometry" />
        </mxCell>
        <mxCell id="2n0Gqxq4nTMnhEadQPVf-16" value="" style="line;strokeWidth=1;fillColor=none;align=left;verticalAlign=middle;spacingTop=-1;spacingLeft=3;spacingRight=3;rotatable=0;labelPosition=right;points=[];portConstraint=eastwest;strokeColor=inherit;fontFamily=Comic Sans MS;fontSize=14;" parent="2n0Gqxq4nTMnhEadQPVf-14" vertex="1">
          <mxGeometry y="50" width="210" height="20" as="geometry" />
        </mxCell>
        <mxCell id="2n0Gqxq4nTMnhEadQPVf-18" value="TSPController" style="swimlane;fontStyle=1;align=center;verticalAlign=top;childLayout=stackLayout;horizontal=1;startSize=26;horizontalStack=0;resizeParent=1;resizeParentMax=0;resizeLast=0;collapsible=1;marginBottom=0;whiteSpace=wrap;html=1;rounded=1;fontFamily=Comic Sans MS;fontSize=14;" parent="1" vertex="1">
          <mxGeometry x="500" y="187" width="320" height="164" as="geometry" />
        </mxCell>
        <mxCell id="2n0Gqxq4nTMnhEadQPVf-19" value="- View:IView" style="text;strokeColor=none;fillColor=none;align=left;verticalAlign=top;spacingLeft=4;spacingRight=4;overflow=hidden;rotatable=0;points=[[0,0.5],[1,0.5]];portConstraint=eastwest;whiteSpace=wrap;html=1;fontFamily=Comic Sans MS;fontSize=14;" parent="2n0Gqxq4nTMnhEadQPVf-18" vertex="1">
          <mxGeometry y="26" width="320" height="26" as="geometry" />
        </mxCell>
        <mxCell id="ipKlGtH6FQnn0kPwf5p3-22" value="- Model:IModel" style="text;strokeColor=none;fillColor=none;align=left;verticalAlign=top;spacingLeft=4;spacingRight=4;overflow=hidden;rotatable=0;points=[[0,0.5],[1,0.5]];portConstraint=eastwest;whiteSpace=wrap;html=1;fontFamily=Comic Sans MS;fontSize=14;" parent="2n0Gqxq4nTMnhEadQPVf-18" vertex="1">
          <mxGeometry y="52" width="320" height="26" as="geometry" />
        </mxCell>
        <mxCell id="2n0Gqxq4nTMnhEadQPVf-20" value="" style="line;strokeWidth=1;fillColor=none;align=left;verticalAlign=middle;spacingTop=-1;spacingLeft=3;spacingRight=3;rotatable=0;labelPosition=right;points=[];portConstraint=eastwest;strokeColor=inherit;fontFamily=Comic Sans MS;fontSize=14;" parent="2n0Gqxq4nTMnhEadQPVf-18" vertex="1">
          <mxGeometry y="78" width="320" height="8" as="geometry" />
        </mxCell>
        <mxCell id="2n0Gqxq4nTMnhEadQPVf-21" value="+ ModifyMap(object, MouseButtonEventArgs)" style="text;strokeColor=none;fillColor=none;align=left;verticalAlign=top;spacingLeft=4;spacingRight=4;overflow=hidden;rotatable=0;points=[[0,0.5],[1,0.5]];portConstraint=eastwest;whiteSpace=wrap;html=1;fontFamily=Comic Sans MS;fontSize=14;" parent="2n0Gqxq4nTMnhEadQPVf-18" vertex="1">
          <mxGeometry y="86" width="320" height="26" as="geometry" />
        </mxCell>
        <mxCell id="ipKlGtH6FQnn0kPwf5p3-36" value="+ ClearGraph(object, RoutedEventArgs)" style="text;strokeColor=none;fillColor=none;align=left;verticalAlign=top;spacingLeft=4;spacingRight=4;overflow=hidden;rotatable=0;points=[[0,0.5],[1,0.5]];portConstraint=eastwest;whiteSpace=wrap;html=1;fontFamily=Comic Sans MS;fontSize=14;" parent="2n0Gqxq4nTMnhEadQPVf-18" vertex="1">
          <mxGeometry y="112" width="320" height="26" as="geometry" />
        </mxCell>
        <mxCell id="ipKlGtH6FQnn0kPwf5p3-37" value="+ Solve(object, RoutedEventArgs)" style="text;strokeColor=none;fillColor=none;align=left;verticalAlign=top;spacingLeft=4;spacingRight=4;overflow=hidden;rotatable=0;points=[[0,0.5],[1,0.5]];portConstraint=eastwest;whiteSpace=wrap;html=1;fontFamily=Comic Sans MS;fontSize=14;" parent="2n0Gqxq4nTMnhEadQPVf-18" vertex="1">
          <mxGeometry y="138" width="320" height="26" as="geometry" />
        </mxCell>
        <mxCell id="2n0Gqxq4nTMnhEadQPVf-22" value="TSPGraph" style="swimlane;fontStyle=1;align=center;verticalAlign=top;childLayout=stackLayout;horizontal=1;startSize=26;horizontalStack=0;resizeParent=1;resizeParentMax=0;resizeLast=0;collapsible=1;marginBottom=0;whiteSpace=wrap;html=1;rounded=1;fontFamily=Comic Sans MS;fontSize=14;" parent="1" vertex="1">
          <mxGeometry x="215.5" y="767" width="220" height="100" as="geometry" />
        </mxCell>
        <mxCell id="hqt6-l8Lm5E7JuM1MTYz-3" value="&lt;span style=&quot;color: rgb(0, 0, 0); font-family: &amp;quot;Comic Sans MS&amp;quot;; font-size: 14px; font-style: normal; font-variant-ligatures: normal; font-variant-caps: normal; font-weight: 400; letter-spacing: normal; orphans: 2; text-align: center; text-indent: 0px; text-transform: none; widows: 2; word-spacing: 0px; -webkit-text-stroke-width: 0px; background-color: rgb(251, 251, 251); text-decoration-thickness: initial; text-decoration-style: initial; text-decoration-color: initial; float: none; display: inline !important;&quot;&gt;- Nodes: List of Node&lt;/span&gt;" style="text;whiteSpace=wrap;html=1;" vertex="1" parent="2n0Gqxq4nTMnhEadQPVf-22">
          <mxGeometry y="26" width="220" height="34" as="geometry" />
        </mxCell>
        <mxCell id="hqt6-l8Lm5E7JuM1MTYz-64" value="&lt;span style=&quot;color: rgb(0, 0, 0); font-family: &amp;quot;Comic Sans MS&amp;quot;; font-size: 14px; font-style: normal; font-variant-ligatures: normal; font-variant-caps: normal; font-weight: 400; letter-spacing: normal; orphans: 2; text-align: center; text-indent: 0px; text-transform: none; widows: 2; word-spacing: 0px; -webkit-text-stroke-width: 0px; background-color: rgb(251, 251, 251); text-decoration-thickness: initial; text-decoration-style: initial; text-decoration-color: initial; float: none; display: inline !important;&quot;&gt;- AdjacentMatrix: int[][]&lt;/span&gt;" style="text;whiteSpace=wrap;html=1;" vertex="1" parent="2n0Gqxq4nTMnhEadQPVf-22">
          <mxGeometry y="60" width="220" height="34" as="geometry" />
        </mxCell>
        <mxCell id="2n0Gqxq4nTMnhEadQPVf-24" value="" style="line;strokeWidth=1;fillColor=none;align=left;verticalAlign=middle;spacingTop=-1;spacingLeft=3;spacingRight=3;rotatable=0;labelPosition=right;points=[];portConstraint=eastwest;strokeColor=inherit;fontFamily=Comic Sans MS;fontSize=14;" parent="2n0Gqxq4nTMnhEadQPVf-22" vertex="1">
          <mxGeometry y="94" width="220" height="6" as="geometry" />
        </mxCell>
        <mxCell id="2n0Gqxq4nTMnhEadQPVf-26" value="&lt;p style=&quot;margin:0px;margin-top:4px;text-align:center;&quot;&gt;&lt;i&gt;&amp;lt;&amp;lt;Interface&amp;gt;&amp;gt;&lt;/i&gt;&lt;br&gt;&lt;b&gt;IGraph&lt;/b&gt;&lt;/p&gt;&lt;hr size=&quot;1&quot;&gt;&lt;p style=&quot;margin:0px;margin-left:4px;&quot;&gt;&lt;/p&gt;&lt;p style=&quot;margin:0px;margin-left:4px;&quot;&gt;&lt;span style=&quot;font-weight: normal;&quot;&gt;+ AddNode(Vector2)&lt;br&gt;+ RemoveNode(int)&lt;/span&gt;&lt;/p&gt;&lt;p style=&quot;margin:0px;margin-left:4px;&quot;&gt;&lt;span style=&quot;font-weight: normal;&quot;&gt;+ CreatePath(int, int)&lt;/span&gt;&lt;/p&gt;&lt;p style=&quot;margin:0px;margin-left:4px;&quot;&gt;&lt;span style=&quot;font-weight: normal;&quot;&gt;+ GetNodes() : List of Vector2&lt;/span&gt;&lt;/p&gt;&lt;p style=&quot;margin:0px;margin-left:4px;&quot;&gt;&lt;span style=&quot;font-weight: normal;&quot;&gt;+ GetAdjacentMatrix() : int[][]&lt;br&gt;&lt;/span&gt;&lt;/p&gt;" style="verticalAlign=top;align=center;overflow=fill;fontSize=14;fontFamily=Comic Sans MS;html=1;whiteSpace=wrap;rounded=1;strokeColor=default;fontColor=default;startSize=26;fillColor=default;fontStyle=1;" parent="1" vertex="1">
          <mxGeometry x="207.5" y="567" width="236" height="150" as="geometry" />
        </mxCell>
        <mxCell id="ipKlGtH6FQnn0kPwf5p3-1" value="&lt;p style=&quot;margin:0px;margin-top:4px;text-align:center;&quot;&gt;&lt;i&gt;&amp;lt;&amp;lt;Interface&amp;gt;&amp;gt;&lt;/i&gt;&lt;br&gt;&lt;b&gt;IView&lt;/b&gt;&lt;/p&gt;&lt;hr size=&quot;1&quot;&gt;&lt;p style=&quot;margin:0px;margin-left:4px;&quot;&gt;&lt;span style=&quot;font-weight: normal;&quot;&gt;+ ShowNode(Vector2)&lt;br&gt;&lt;/span&gt;&lt;/p&gt;&lt;p style=&quot;margin:0px;margin-left:4px;&quot;&gt;&lt;span style=&quot;font-weight: normal;&quot;&gt;+ShowResult()&lt;/span&gt;&lt;/p&gt;&lt;p style=&quot;margin:0px;margin-left:4px;&quot;&gt;&lt;span style=&quot;font-weight: normal;&quot;&gt;+ RemoveNode(int)&lt;/span&gt;&lt;/p&gt;&lt;p style=&quot;margin:0px;margin-left:4px;&quot;&gt;&lt;span style=&quot;font-weight: normal;&quot;&gt;+ ShowPath(int, int)&lt;/span&gt;&lt;/p&gt;&lt;p style=&quot;margin:0px;margin-left:4px;&quot;&gt;&lt;span style=&quot;font-weight: normal;&quot;&gt;+ ClearDisplay()&lt;/span&gt;&lt;/p&gt;" style="verticalAlign=top;align=center;overflow=fill;fontSize=14;fontFamily=Comic Sans MS;html=1;whiteSpace=wrap;rounded=1;strokeColor=default;fontColor=default;startSize=26;fillColor=default;fontStyle=1;" parent="1" vertex="1">
          <mxGeometry x="237.5" y="199" width="176" height="142" as="geometry" />
        </mxCell>
        <mxCell id="ipKlGtH6FQnn0kPwf5p3-23" value="IModel" style="swimlane;fontStyle=1;align=center;verticalAlign=top;childLayout=stackLayout;horizontal=1;startSize=26;horizontalStack=0;resizeParent=1;resizeParentMax=0;resizeLast=0;collapsible=1;marginBottom=0;whiteSpace=wrap;html=1;rounded=1;fontFamily=Comic Sans MS;fontSize=14;" parent="1" vertex="1">
          <mxGeometry x="548" y="411" width="210" height="160" as="geometry" />
        </mxCell>
        <mxCell id="ipKlGtH6FQnn0kPwf5p3-25" value="" style="line;strokeWidth=1;fillColor=none;align=left;verticalAlign=middle;spacingTop=-1;spacingLeft=3;spacingRight=3;rotatable=0;labelPosition=right;points=[];portConstraint=eastwest;strokeColor=inherit;fontFamily=Comic Sans MS;fontSize=14;" parent="ipKlGtH6FQnn0kPwf5p3-23" vertex="1">
          <mxGeometry y="26" width="210" height="8" as="geometry" />
        </mxCell>
        <mxCell id="ipKlGtH6FQnn0kPwf5p3-26" value="+ SolveGraph()" style="text;strokeColor=none;fillColor=none;align=left;verticalAlign=top;spacingLeft=4;spacingRight=4;overflow=hidden;rotatable=0;points=[[0,0.5],[1,0.5]];portConstraint=eastwest;whiteSpace=wrap;html=1;fontFamily=Comic Sans MS;fontSize=14;" parent="ipKlGtH6FQnn0kPwf5p3-23" vertex="1">
          <mxGeometry y="34" width="210" height="26" as="geometry" />
        </mxCell>
        <mxCell id="ipKlGtH6FQnn0kPwf5p3-34" value="+ AddTown(Vector2)" style="text;strokeColor=none;fillColor=none;align=left;verticalAlign=top;spacingLeft=4;spacingRight=4;overflow=hidden;rotatable=0;points=[[0,0.5],[1,0.5]];portConstraint=eastwest;whiteSpace=wrap;html=1;fontFamily=Comic Sans MS;fontSize=14;" parent="ipKlGtH6FQnn0kPwf5p3-23" vertex="1">
          <mxGeometry y="60" width="210" height="26" as="geometry" />
        </mxCell>
        <mxCell id="hqt6-l8Lm5E7JuM1MTYz-17" value="+ RemoveTown(Vector2)" style="text;strokeColor=none;fillColor=none;align=left;verticalAlign=top;spacingLeft=4;spacingRight=4;overflow=hidden;rotatable=0;points=[[0,0.5],[1,0.5]];portConstraint=eastwest;whiteSpace=wrap;html=1;fontFamily=Comic Sans MS;fontSize=14;" vertex="1" parent="ipKlGtH6FQnn0kPwf5p3-23">
          <mxGeometry y="86" width="210" height="24" as="geometry" />
        </mxCell>
        <mxCell id="hqt6-l8Lm5E7JuM1MTYz-18" value="+ CreatePath(int, int)" style="text;strokeColor=none;fillColor=none;align=left;verticalAlign=top;spacingLeft=4;spacingRight=4;overflow=hidden;rotatable=0;points=[[0,0.5],[1,0.5]];portConstraint=eastwest;whiteSpace=wrap;html=1;fontFamily=Comic Sans MS;fontSize=14;" vertex="1" parent="ipKlGtH6FQnn0kPwf5p3-23">
          <mxGeometry y="110" width="210" height="24" as="geometry" />
        </mxCell>
        <mxCell id="ipKlGtH6FQnn0kPwf5p3-35" value="+ ClearGraph()" style="text;strokeColor=none;fillColor=none;align=left;verticalAlign=top;spacingLeft=4;spacingRight=4;overflow=hidden;rotatable=0;points=[[0,0.5],[1,0.5]];portConstraint=eastwest;whiteSpace=wrap;html=1;fontFamily=Comic Sans MS;fontSize=14;" parent="ipKlGtH6FQnn0kPwf5p3-23" vertex="1">
          <mxGeometry y="134" width="210" height="26" as="geometry" />
        </mxCell>
        <mxCell id="hqt6-l8Lm5E7JuM1MTYz-19" value="" style="endArrow=diamondThin;endFill=0;endSize=24;html=1;rounded=0;entryX=0.5;entryY=1;entryDx=0;entryDy=0;exitX=0.5;exitY=0;exitDx=0;exitDy=0;" edge="1" parent="1" source="2n0Gqxq4nTMnhEadQPVf-26" target="2n0Gqxq4nTMnhEadQPVf-14">
          <mxGeometry width="160" relative="1" as="geometry">
            <mxPoint x="430" y="527" as="sourcePoint" />
            <mxPoint x="180" y="847" as="targetPoint" />
          </mxGeometry>
        </mxCell>
        <mxCell id="hqt6-l8Lm5E7JuM1MTYz-20" value="" style="endArrow=block;dashed=1;endFill=0;endSize=12;html=1;rounded=0;entryX=0.5;entryY=1;entryDx=0;entryDy=0;exitX=0.5;exitY=0;exitDx=0;exitDy=0;" edge="1" parent="1" source="2n0Gqxq4nTMnhEadQPVf-22" target="2n0Gqxq4nTMnhEadQPVf-26">
          <mxGeometry width="160" relative="1" as="geometry">
            <mxPoint x="50" y="887" as="sourcePoint" />
            <mxPoint x="210" y="887" as="targetPoint" />
          </mxGeometry>
        </mxCell>
        <mxCell id="hqt6-l8Lm5E7JuM1MTYz-21" value="" style="endArrow=block;dashed=1;endFill=0;endSize=12;html=1;rounded=0;exitX=1;exitY=0.5;exitDx=0;exitDy=0;entryX=0;entryY=0.5;entryDx=0;entryDy=0;" edge="1" parent="1" source="hqt6-l8Lm5E7JuM1MTYz-5" target="ipKlGtH6FQnn0kPwf5p3-26">
          <mxGeometry width="160" relative="1" as="geometry">
            <mxPoint x="560" y="677" as="sourcePoint" />
            <mxPoint x="550" y="459" as="targetPoint" />
          </mxGeometry>
        </mxCell>
        <mxCell id="hqt6-l8Lm5E7JuM1MTYz-24" value="" style="endArrow=open;endSize=12;dashed=1;html=1;rounded=0;exitX=0.5;exitY=0;exitDx=0;exitDy=0;entryX=0.476;entryY=0.985;entryDx=0;entryDy=0;entryPerimeter=0;" edge="1" parent="1" source="ipKlGtH6FQnn0kPwf5p3-23" target="ipKlGtH6FQnn0kPwf5p3-37">
          <mxGeometry width="160" relative="1" as="geometry">
            <mxPoint x="730" y="380" as="sourcePoint" />
            <mxPoint x="653" y="360" as="targetPoint" />
          </mxGeometry>
        </mxCell>
        <mxCell id="hqt6-l8Lm5E7JuM1MTYz-26" value="" style="endArrow=block;dashed=1;endFill=0;endSize=12;html=1;rounded=0;entryX=0;entryY=0.5;entryDx=0;entryDy=0;exitX=1;exitY=0.5;exitDx=0;exitDy=0;" edge="1" parent="1" source="2n0Gqxq4nTMnhEadQPVf-10" target="ipKlGtH6FQnn0kPwf5p3-1">
          <mxGeometry width="160" relative="1" as="geometry">
            <mxPoint x="335" y="777" as="sourcePoint" />
            <mxPoint x="336" y="737" as="targetPoint" />
          </mxGeometry>
        </mxCell>
        <mxCell id="hqt6-l8Lm5E7JuM1MTYz-31" value="Node" style="swimlane;fontStyle=1;childLayout=stackLayout;horizontal=1;startSize=26;fillColor=default;horizontalStack=0;resizeParent=1;resizeParentMax=0;resizeLast=0;collapsible=1;marginBottom=0;whiteSpace=wrap;html=1;fontSize=14;fontFamily=Comic Sans MS;verticalAlign=top;rounded=1;" vertex="1" parent="1">
          <mxGeometry x="573" y="762" width="100" height="78" as="geometry" />
        </mxCell>
        <mxCell id="hqt6-l8Lm5E7JuM1MTYz-32" value="+ X: int" style="text;strokeColor=none;fillColor=none;align=left;verticalAlign=top;spacingLeft=4;spacingRight=4;overflow=hidden;rotatable=0;points=[[0,0.5],[1,0.5]];portConstraint=eastwest;whiteSpace=wrap;html=1;fontSize=14;fontFamily=Comic Sans MS;" vertex="1" parent="hqt6-l8Lm5E7JuM1MTYz-31">
          <mxGeometry y="26" width="100" height="26" as="geometry" />
        </mxCell>
        <mxCell id="hqt6-l8Lm5E7JuM1MTYz-33" value="+ Y: int" style="text;strokeColor=none;fillColor=none;align=left;verticalAlign=top;spacingLeft=4;spacingRight=4;overflow=hidden;rotatable=0;points=[[0,0.5],[1,0.5]];portConstraint=eastwest;whiteSpace=wrap;html=1;fontSize=14;fontFamily=Comic Sans MS;" vertex="1" parent="hqt6-l8Lm5E7JuM1MTYz-31">
          <mxGeometry y="52" width="100" height="26" as="geometry" />
        </mxCell>
        <mxCell id="hqt6-l8Lm5E7JuM1MTYz-42" value="Town" style="swimlane;fontStyle=1;childLayout=stackLayout;horizontal=1;startSize=26;fillColor=default;horizontalStack=0;resizeParent=1;resizeParentMax=0;resizeLast=0;collapsible=1;marginBottom=0;whiteSpace=wrap;html=1;fontSize=14;fontFamily=Comic Sans MS;verticalAlign=top;rounded=1;" vertex="1" parent="1">
          <mxGeometry x="560" y="616" width="130" height="52" as="geometry" />
        </mxCell>
        <mxCell id="hqt6-l8Lm5E7JuM1MTYz-43" value="+ Name : string" style="text;strokeColor=none;fillColor=none;align=left;verticalAlign=top;spacingLeft=4;spacingRight=4;overflow=hidden;rotatable=0;points=[[0,0.5],[1,0.5]];portConstraint=eastwest;whiteSpace=wrap;html=1;fontSize=14;fontFamily=Comic Sans MS;" vertex="1" parent="hqt6-l8Lm5E7JuM1MTYz-42">
          <mxGeometry y="26" width="130" height="26" as="geometry" />
        </mxCell>
        <mxCell id="hqt6-l8Lm5E7JuM1MTYz-47" value="" style="endArrow=diamondThin;endFill=1;endSize=24;html=1;rounded=0;exitX=1;exitY=0.25;exitDx=0;exitDy=0;entryX=0;entryY=0.5;entryDx=0;entryDy=0;" edge="1" parent="1" source="hqt6-l8Lm5E7JuM1MTYz-3" target="hqt6-l8Lm5E7JuM1MTYz-32">
          <mxGeometry width="160" relative="1" as="geometry">
            <mxPoint x="380" y="897" as="sourcePoint" />
            <mxPoint x="540" y="802" as="targetPoint" />
          </mxGeometry>
        </mxCell>
        <mxCell id="hqt6-l8Lm5E7JuM1MTYz-50" value="" style="endArrow=block;endSize=16;endFill=0;html=1;rounded=0;exitX=0.485;exitY=1.202;exitDx=0;exitDy=0;exitPerimeter=0;entryX=0.5;entryY=0;entryDx=0;entryDy=0;" edge="1" parent="1" source="hqt6-l8Lm5E7JuM1MTYz-43" target="hqt6-l8Lm5E7JuM1MTYz-31">
          <mxGeometry width="160" relative="1" as="geometry">
            <mxPoint x="290" y="917" as="sourcePoint" />
            <mxPoint x="450" y="917" as="targetPoint" />
          </mxGeometry>
        </mxCell>
        <mxCell id="hqt6-l8Lm5E7JuM1MTYz-51" value="Application" style="swimlane;fontStyle=1;align=center;verticalAlign=top;childLayout=stackLayout;horizontal=1;startSize=26;horizontalStack=0;resizeParent=1;resizeParentMax=0;resizeLast=0;collapsible=1;marginBottom=0;whiteSpace=wrap;html=1;rounded=1;fontFamily=Comic Sans MS;fontSize=14;" vertex="1" parent="1">
          <mxGeometry x="237.5" y="40" width="182.5" height="86" as="geometry" />
        </mxCell>
        <mxCell id="hqt6-l8Lm5E7JuM1MTYz-52" value="+ Controller:IController" style="text;strokeColor=none;fillColor=none;align=left;verticalAlign=top;spacingLeft=4;spacingRight=4;overflow=hidden;rotatable=0;points=[[0,0.5],[1,0.5]];portConstraint=eastwest;whiteSpace=wrap;html=1;fontFamily=Comic Sans MS;fontSize=14;" vertex="1" parent="hqt6-l8Lm5E7JuM1MTYz-51">
          <mxGeometry y="26" width="182.5" height="26" as="geometry" />
        </mxCell>
        <mxCell id="hqt6-l8Lm5E7JuM1MTYz-54" value="" style="line;strokeWidth=1;fillColor=none;align=left;verticalAlign=middle;spacingTop=-1;spacingLeft=3;spacingRight=3;rotatable=0;labelPosition=right;points=[];portConstraint=eastwest;strokeColor=inherit;fontFamily=Comic Sans MS;fontSize=14;" vertex="1" parent="hqt6-l8Lm5E7JuM1MTYz-51">
          <mxGeometry y="52" width="182.5" height="8" as="geometry" />
        </mxCell>
        <mxCell id="hqt6-l8Lm5E7JuM1MTYz-55" value="+ Main()" style="text;strokeColor=none;fillColor=none;align=left;verticalAlign=top;spacingLeft=4;spacingRight=4;overflow=hidden;rotatable=0;points=[[0,0.5],[1,0.5]];portConstraint=eastwest;whiteSpace=wrap;html=1;fontFamily=Comic Sans MS;fontSize=14;" vertex="1" parent="hqt6-l8Lm5E7JuM1MTYz-51">
          <mxGeometry y="60" width="182.5" height="26" as="geometry" />
        </mxCell>
        <mxCell id="hqt6-l8Lm5E7JuM1MTYz-58" value="&lt;p style=&quot;margin:0px;margin-top:4px;text-align:center;&quot;&gt;&lt;i&gt;&amp;lt;&amp;lt;Interface&amp;gt;&amp;gt;&lt;/i&gt;&lt;br&gt;&lt;b&gt;IController&lt;/b&gt;&lt;/p&gt;&lt;hr size=&quot;1&quot;&gt;&lt;p style=&quot;margin:0px;margin-left:4px;&quot;&gt;&lt;span style=&quot;font-weight: normal;&quot;&gt;+ SetView(IView)&lt;/span&gt;&lt;/p&gt;&lt;p style=&quot;margin:0px;margin-left:4px;&quot;&gt;&lt;span style=&quot;font-weight: normal;&quot;&gt;+ SetModel(IModel)&lt;/span&gt;&lt;/p&gt;" style="verticalAlign=top;align=center;overflow=fill;fontSize=14;fontFamily=Comic Sans MS;html=1;whiteSpace=wrap;rounded=1;strokeColor=default;fontColor=default;startSize=26;fillColor=default;fontStyle=1;" vertex="1" parent="1">
          <mxGeometry x="559" y="35" width="176" height="88" as="geometry" />
        </mxCell>
        <mxCell id="hqt6-l8Lm5E7JuM1MTYz-60" value="" style="endArrow=block;dashed=1;endFill=0;endSize=12;html=1;rounded=0;exitX=0.459;exitY=-0.011;exitDx=0;exitDy=0;entryX=0.5;entryY=1;entryDx=0;entryDy=0;exitPerimeter=0;" edge="1" parent="1" source="2n0Gqxq4nTMnhEadQPVf-18" target="hqt6-l8Lm5E7JuM1MTYz-58">
          <mxGeometry width="160" relative="1" as="geometry">
            <mxPoint x="440" y="469" as="sourcePoint" />
            <mxPoint x="558" y="468" as="targetPoint" />
          </mxGeometry>
        </mxCell>
        <mxCell id="hqt6-l8Lm5E7JuM1MTYz-62" value="" style="endArrow=open;endFill=1;endSize=12;html=1;rounded=0;entryX=0;entryY=0.5;entryDx=0;entryDy=0;exitX=1;exitY=0.5;exitDx=0;exitDy=0;" edge="1" parent="1" source="hqt6-l8Lm5E7JuM1MTYz-52" target="hqt6-l8Lm5E7JuM1MTYz-58">
          <mxGeometry width="160" relative="1" as="geometry">
            <mxPoint x="410" y="90" as="sourcePoint" />
            <mxPoint x="570" y="90" as="targetPoint" />
          </mxGeometry>
        </mxCell>
        <mxCell id="hqt6-l8Lm5E7JuM1MTYz-63" value="" style="endArrow=open;endSize=12;dashed=1;html=1;rounded=0;exitX=1;exitY=0.5;exitDx=0;exitDy=0;entryX=0.006;entryY=-0.09;entryDx=0;entryDy=0;entryPerimeter=0;" edge="1" parent="1" source="ipKlGtH6FQnn0kPwf5p3-1" target="2n0Gqxq4nTMnhEadQPVf-21">
          <mxGeometry width="160" relative="1" as="geometry">
            <mxPoint x="663" y="362" as="sourcePoint" />
            <mxPoint x="480" y="380" as="targetPoint" />
          </mxGeometry>
        </mxCell>
      </root>
    </mxGraphModel>
  </diagram>
</mxfile>
